<svg width="133" height="24" viewBox="0 0 133 24" fill="none" xmlns="http://www.w3.org/2000/svg">
<path d="M89.2989 19.3046C84.6292 19.3046 81.6553 15.7567 81.6553 11.7392C81.6553 7.53912 84.8901 4.17383 89.0119 4.17383C92.7685 4.17383 95.4556 6.59997 95.9773 9.93917H92.8207C92.2729 8.21739 90.9685 7.09563 89.0641 7.09563C86.7684 7.09563 84.9423 8.97393 84.9423 11.7131C84.9423 14.2958 86.638 16.4089 89.4815 16.4089C90.2381 16.4089 91.125 16.2523 92.0642 15.8871L95.4556 14.6088L96.3686 17.3741L93.3425 18.548C92.1164 19.0176 90.6033 19.3046 89.2989 19.3046Z" fill="black"/>
<path d="M6.18274 19.5651C3.00006 19.5651 0.52175 18.2607 0 15.4433L2.84354 14.5563C3.15659 16.3041 4.53923 17.1129 6.23491 17.1129C7.95669 17.1129 8.94801 16.3824 8.94801 15.2085C8.94801 13.9302 7.7219 13.6171 6.18274 13.3563L5.0088 13.1736C2.76528 12.8084 0.286963 12.1823 0.286963 8.8692C0.286963 6.26045 2.55658 4.43433 5.89578 4.43433C9.3915 4.43433 11.4263 6.41698 11.6089 9.02573H8.58279C8.47844 7.85179 7.59146 6.91264 5.86969 6.91264C4.3827 6.91264 3.36529 7.53874 3.36529 8.71268C3.36529 9.88661 4.53923 10.1997 5.94795 10.4345L7.27841 10.6692C9.75673 11.0606 12.0263 11.8432 12.0263 14.9476C12.0263 17.7129 9.8089 19.5651 6.18274 19.5651Z" fill="black"/>
<path d="M19.7225 19.5651C15.8876 19.5651 12.7832 16.2259 12.7832 12.0258C12.7832 7.79962 15.8876 4.43433 19.7225 4.43433C21.8617 4.43433 23.6356 5.39956 24.8356 6.91264V4.6952H27.9661V24H24.8356V17.0868C23.6356 18.6259 21.8617 19.5651 19.7225 19.5651ZM20.4268 16.6433C22.8791 16.6433 24.8356 14.7911 24.8356 11.9997C24.8356 9.20834 22.8791 7.35613 20.4268 7.35613C18.0007 7.35613 16.0702 9.20834 16.0702 12.0258C16.0702 14.7911 18.0007 16.6433 20.4268 16.6433Z" fill="black"/>
<path d="M51.202 19.5651C47.3671 19.5651 44.2627 16.2259 44.2627 12.0258C44.2627 7.79961 47.3671 4.43433 51.202 4.43433C53.3411 4.43433 55.1151 5.39956 56.3151 6.91264V4.6952H59.4456V19.3042H56.3151V17.0868C55.1151 18.6259 53.3411 19.5651 51.202 19.5651ZM51.9063 16.6433C54.3586 16.6433 56.3151 14.7911 56.3151 11.9997C56.3151 9.20834 54.3586 7.35613 51.9063 7.35613C49.4802 7.35613 47.5497 9.20834 47.5497 12.0258C47.5497 14.7911 49.4802 16.6433 51.9063 16.6433Z" fill="black"/>
<path d="M67.9549 19.5656C64.12 19.5656 61.0156 16.2264 61.0156 12.0263C61.0156 7.80016 64.12 4.43487 67.9549 4.43487C70.0941 4.43487 71.868 5.40011 73.068 6.91319V0H76.1985V19.3047H73.068V17.0873C71.868 18.6265 70.0941 19.5656 67.9549 19.5656ZM68.6593 16.6438C71.1115 16.6438 73.068 14.7916 73.068 12.0003C73.068 9.20889 71.1115 7.35667 68.6593 7.35667C66.2331 7.35667 64.3026 9.20889 64.3026 12.0263C64.3026 14.7916 66.2331 16.6438 68.6593 16.6438Z" fill="black"/>
<path d="M104.854 19.5651C100.601 19.5651 97.1318 16.1998 97.1318 11.9997C97.1318 7.79961 100.601 4.43433 104.854 4.43433C109.106 4.43433 112.55 7.79961 112.55 11.9997C112.55 16.1998 109.106 19.5651 104.854 19.5651ZM104.854 16.6433C107.28 16.6433 109.263 14.765 109.263 11.9997C109.263 9.23443 107.28 7.35613 104.854 7.35613C102.402 7.35613 100.393 9.23443 100.393 11.9997C100.393 14.765 102.402 16.6433 104.854 16.6433Z" fill="black"/>
<path d="M116.439 19.3042H113.309V4.6952H116.439V6.33871C117.248 5.21695 118.474 4.43433 120.17 4.43433C122.048 4.43433 123.457 5.3213 124.187 6.86046C124.97 5.45174 126.405 4.43433 128.439 4.43433C131.231 4.43433 133.005 6.33871 133.005 9.52139V19.3042H129.874V10.4084C129.874 8.42571 128.883 7.48656 127.422 7.48656C125.857 7.48656 124.735 8.68659 124.735 10.6432V19.3042H121.578V10.4084C121.578 8.42571 120.613 7.48656 119.126 7.48656C117.561 7.48656 116.439 8.68659 116.439 10.6432V19.3042Z" fill="black"/>
<circle cx="79.3074" cy="17.7394" r="1.56525" fill="black"/>
<path d="M39.564 11.9146V4.69543H42.6961V19.2775H39.7749V16.4141C38.9768 18.3685 37.3053 19.5653 34.8659 19.5653C31.2218 19.5653 29.5654 17.3686 29.5654 13.7478V4.69543H32.6975V13.0054C32.6975 15.5052 33.6462 16.6565 35.664 16.6565C37.9378 16.6565 39.564 15.0052 39.564 11.9146Z" fill="black"/>
</svg>
